<svg width="64" height="64" viewBox="0 0 64 64" xmlns="http://www.w3.org/2000/svg">
  <rect width="64" height="64" rx="12" fill="#0F6BFF"/>
  <g transform="translate(30,6)">
    <rect x="0" y="12" width="10" height="38" fill="white" rx="1.5"/>
    <rect x="14" y="4" width="8" height="46" fill="#B3D4FF" rx="1.5"/>
    <rect x="26" y="16" width="7" height="34" fill="white" rx="1.5"/>
    <g fill="#0F6BFF" opacity="0.6">
      <rect x="2" y="17" width="3" height="4" rx="0.5"/>
      <rect x="2" y="25" width="3" height="4" rx="0.5"/>
      <rect x="2" y="33" width="3" height="4" rx="0.5"/>
      <rect x="16" y="9" width="3" height="4" rx="0.5"/>
      <rect x="16" y="17" width="3" height="4" rx="0.5"/>
      <rect x="16" y="25" width="3" height="4" rx="0.5"/>
      <rect x="28" y="22" width="3" height="4" rx="0.5"/>
      <rect x="28" y="30" width="3" height="4" rx="0.5"/>
    </g>
  </g>
  <g transform="translate(4,18)">
    <polygon points="0,16 14,0 28,16" fill="white" opacity="0.95"/>
    <rect x="3" y="16" width="22" height="26" fill="#B3D4FF" rx="2"/>
    <rect x="10" y="26" width="6" height="16" fill="#0F6BFF" rx="1"/>
    <g fill="white" opacity="0.85">
      <rect x="5" y="19" width="4" height="4" rx="0.5"/>
      <rect x="19" y="19" width="4" height="4" rx="0.5"/>
    </g>
  </g>
</svg>
