<svg width="64" height="64" viewBox="0 0 64 64" xmlns="http://www.w3.org/2000/svg">
  <rect width="64" height="64" rx="12" fill="#0F6BFF"/>
  <g transform="translate(6,6)">
    <rect x="4" y="14" width="14" height="36" fill="white" rx="2"/>
    <rect x="22" y="8" width="10" height="42" fill="#B3D4FF" rx="2"/>
    <rect x="36" y="18" width="8" height="32" fill="white" rx="2"/>
    <g fill="#0F6BFF" opacity="0.7">
      <rect x="7" y="18" width="4" height="5" rx="0.5"/>
      <rect x="7" y="26" width="4" height="5" rx="0.5"/>
      <rect x="7" y="34" width="4" height="5" rx="0.5"/>
      <rect x="25" y="12" width="3" height="4" rx="0.5"/>
      <rect x="25" y="20" width="3" height="4" rx="0.5"/>
      <rect x="25" y="28" width="3" height="4" rx="0.5"/>
      <rect x="38" y="24" width="3" height="4" rx="0.5"/>
      <rect x="38" y="32" width="3" height="4" rx="0.5"/>
    </g>
  </g>
</svg>
